<?xml version="1.0" standalone="no"?>
<!DOCTYPE svg PUBLIC "-//W3C//DTD SVG 20010904//EN"
 "http://www.w3.org/TR/2001/REC-SVG-20010904/DTD/svg10.dtd">
<svg version="1.0" xmlns="http://www.w3.org/2000/svg"
 width="450.000000pt" height="450.000000pt" viewBox="0 0 450.000000 450.000000"
 preserveAspectRatio="xMidYMid meet">
<metadata>
Created by potrace 1.14, written by Peter Selinger 2001-2017
</metadata>
<g transform="translate(0.000000,450.000000) scale(0.100000,-0.100000)"
fill="#000000" stroke="none">
<path d="M1385 3811 l-860 -497 0 -1004 0 -1004 863 -498 862 -498 863 498
862 498 0 1004 0 1004 -860 497 c-473 274 -862 498 -865 498 -3 0 -392 -224
-865 -498z m1078 217 c116 -67 217 -126 224 -132 9 -8 -47 -45 -217 -143
l-229 -131 -226 130 c-124 71 -225 133 -225 137 0 8 431 259 448 260 7 1 108
-54 225 -121z m560 -320 c116 -67 217 -126 224 -132 9 -8 -47 -45 -217 -143
l-229 -131 -226 130 c-124 71 -225 133 -225 137 0 8 431 259 448 260 7 1 108
-54 225 -121z m-1051 -27 l223 -130 3 -265 c1 -146 0 -266 -3 -266 -7 0 -403
228 -437 252 l-28 19 0 260 c0 147 4 259 9 259 5 0 110 -58 233 -129z m-599
-283 c116 -67 217 -126 224 -132 9 -8 -47 -45 -217 -143 l-229 -131 -226 130
c-124 71 -225 133 -225 137 0 8 431 259 448 260 7 1 108 -54 225 -121z m1159
-37 l223 -130 3 -265 c1 -146 0 -266 -3 -266 -7 0 -403 228 -437 252 l-28 19
0 260 c0 147 4 259 9 259 5 0 110 -58 233 -129z m778 -131 l0 -260 -37 -24
c-43 -28 -423 -246 -429 -246 -2 0 -4 119 -4 264 l0 263 223 131 c122 72 228
131 235 131 9 1 12 -57 12 -259z m-2428 -179 l223 -130 3 -265 c1 -146 0 -266
-3 -266 -7 0 -403 228 -437 252 l-28 19 0 260 c0 147 4 259 9 259 5 0 110 -58
233 -129z m778 -131 l0 -260 -37 -24 c-43 -28 -423 -246 -429 -246 -2 0 -4
119 -4 264 l0 263 223 131 c122 72 228 131 235 131 9 1 12 -57 12 -259z m333
118 l207 -120 0 -264 c0 -145 -2 -264 -4 -264 -2 0 -105 58 -228 129 l-223
129 -3 266 -2 267 22 -12 c13 -7 116 -66 231 -131z m1570 -270 c116 -67 217
-126 224 -132 9 -8 -47 -45 -217 -143 l-229 -131 -226 130 c-124 71 -225 133
-225 137 0 8 431 259 448 260 7 1 108 -54 225 -121z m-1020 -40 l207 -120 0
-264 c0 -145 -2 -264 -4 -264 -2 0 -105 58 -228 129 l-223 129 -3 266 -2 267
22 -12 c13 -7 116 -66 231 -131z m-1640 -320 l207 -120 0 -264 c0 -145 -2
-264 -4 -264 -2 0 -105 58 -228 129 l-223 129 -3 266 -2 267 22 -12 c13 -7
116 -66 231 -131z m757 -118 l0 -260 -37 -24 c-43 -28 -423 -246 -429 -246 -2
0 -4 119 -4 264 l0 263 223 131 c122 72 228 131 235 131 9 1 12 -57 12 -259z
m200 190 c305 -175 331 -192 313 -204 -34 -23 -422 -246 -427 -246 -4 0 -6
118 -6 261 l0 261 23 -14 c12 -8 56 -34 97 -58z m1233 -72 l207 -120 0 -264
c0 -145 -2 -264 -4 -264 -2 0 -105 58 -228 129 l-223 129 -3 266 -2 267 22
-12 c13 -7 116 -66 231 -131z m757 -118 l0 -260 -37 -24 c-43 -28 -423 -246
-429 -246 -2 0 -4 119 -4 264 l0 263 223 131 c122 72 228 131 235 131 9 1 12
-57 12 -259z m-1377 -152 c116 -67 217 -126 224 -132 9 -8 -47 -45 -217 -143
l-229 -131 -226 130 c-124 71 -225 133 -225 137 0 8 431 259 448 260 7 1 108
-54 225 -121z m-775 -581 l-3 -133 -217 125 c-119 69 -218 130 -220 134 -2 5
96 66 217 136 l220 127 3 -127 c1 -70 1 -188 0 -262z m-823 232 c88 -51 177
-102 197 -113 l38 -21 0 -263 0 -264 -42 25 c-24 13 -127 73 -230 132 l-188
107 0 265 0 265 33 -20 c17 -11 104 -62 192 -113z m1128 -11 l207 -120 0 -264
c0 -145 -2 -264 -4 -264 -2 0 -105 58 -228 129 l-223 129 -3 266 -2 267 22
-12 c13 -7 116 -66 231 -131z m757 -118 l0 -260 -37 -24 c-43 -28 -423 -246
-429 -246 -2 0 -4 119 -4 264 l0 263 223 131 c122 72 228 131 235 131 9 1 12
-57 12 -259z m305 129 c88 -51 177 -102 197 -113 l38 -21 0 -263 0 -264 -42
25 c-24 13 -127 73 -230 132 l-188 107 0 265 0 265 33 -20 c17 -11 104 -62
192 -113z m783 -135 l-3 -267 -223 -128 c-123 -71 -226 -129 -228 -129 -2 0
-4 119 -4 263 l0 264 223 131 c122 71 225 131 230 131 4 1 6 -119 5 -265z
m-2423 -175 c88 -51 177 -102 197 -113 l38 -21 0 -263 0 -264 -42 25 c-24 13
-127 73 -230 132 l-188 107 0 265 0 265 33 -20 c17 -11 104 -62 192 -113z
m550 -320 c88 -51 177 -102 197 -113 l38 -21 0 -263 0 -264 -42 25 c-24 13
-127 73 -230 132 l-188 107 0 265 0 265 33 -20 c17 -11 104 -62 192 -113z
m783 -135 l-3 -267 -223 -128 c-123 -71 -226 -129 -228 -129 -2 0 -4 119 -4
263 l0 264 223 131 c122 71 225 131 230 131 4 1 6 -119 5 -265z"/>
</g>
</svg>
